<svg width="28" height="28" viewBox="0 0 28 28" fill="none" xmlns="http://www.w3.org/2000/svg">
<g filter="url(#filter0_d_8_63)">
<path d="M12.08 8.53282C12.13 8.215 12.24 7.93571 12.38 7.70458C12.68 7.16526 13.19 6.88597 13.88 6.87633C14.33 6.87633 14.74 7.06895 15.03 7.34824C15.31 7.64679 15.5 8.06091 15.5 8.47503H17.3C17.28 8.02239 17.19 7.60827 17 7.22304C16.85 6.85707 16.62 6.52963 16.32 6.25997C14.87 4.96945 12.18 5.15244 10.95 6.6163C9.66 8.22464 9.63 11.0368 10.94 12.6451C12.15 14.0801 14.8 14.2824 16.24 13.0015C16.55 12.7607 16.8 12.4622 17 12.1154C17.16 11.7687 17.27 11.4028 17.28 11.0079H15.5C15.5 11.2102 15.43 11.3931 15.34 11.5569C15.25 11.7398 15.13 11.8843 15 12.0095C14.67 12.2599 14.28 12.3947 13.86 12.3947C13.5 12.3851 13.2 12.3177 12.97 12.1732C12.7108 12.0328 12.5042 11.8171 12.38 11.5569C11.88 10.6901 11.96 9.48626 12.08 8.53282ZM14 0C8.5 0 4 4.33382 4 9.63072C4.53 22.4107 23.5 22.4011 24 9.63072C24 4.33382 19.5 0 14 0ZM14 17.3353C9.59 17.3353 6 13.8779 6 9.63072C6.44 -0.587474 21.56 -0.587474 22 9.63072C22 13.8779 18.41 17.3353 14 17.3353Z" fill="#7D7A74"/>
</g>
<defs>
<filter id="filter0_d_8_63" x="0" y="0" width="28" height="27.212" filterUnits="userSpaceOnUse" color-interpolation-filters="sRGB">
<feFlood flood-opacity="0" result="BackgroundImageFix"/>
<feColorMatrix in="SourceAlpha" type="matrix" values="0 0 0 0 0 0 0 0 0 0 0 0 0 0 0 0 0 0 127 0" result="hardAlpha"/>
<feOffset dy="4"/>
<feGaussianBlur stdDeviation="2"/>
<feComposite in2="hardAlpha" operator="out"/>
<feColorMatrix type="matrix" values="0 0 0 0 0 0 0 0 0 0 0 0 0 0 0 0 0 0 0.25 0"/>
<feBlend mode="normal" in2="BackgroundImageFix" result="effect1_dropShadow_8_63"/>
<feBlend mode="normal" in="SourceGraphic" in2="effect1_dropShadow_8_63" result="shape"/>
</filter>
</defs>
</svg>
